<svg width="1440" height="1254" viewBox="0 0 1440 1254" fill="none" xmlns="http://www.w3.org/2000/svg">
<path fill-rule="evenodd" clip-rule="evenodd" d="M1440 0H0V832.5V840V1254C90.8 1248.6 176.2 1203.6 256.1 1118.9C281.749 1091.73 300.721 1068.24 316.647 1048.52C375.172 976.048 392.569 954.505 549 988.7C714.616 1024.9 730.625 1011.24 805.118 947.643C820.134 934.824 837.527 919.977 859 903.1C911.737 861.652 956.835 841.185 997.092 840H1004.47C1058.65 841.616 1104.12 878.992 1148 947.8C1226 1070 1299 1110.7 1432 1155.6C1434.7 1156.5 1437.4 1158.2 1440 1160.7V840V827V0Z" fill="#1C2230"/>
</svg>
